<?xml version="1.0" encoding="utf-8"?>
<!-- Generator: Adobe Illustrator 27.3.1, SVG Export Plug-In . SVG Version: 6.00 Build 0)  -->
<svg version="1.1" id="圖層_1" xmlns="http://www.w3.org/2000/svg" xmlns:xlink="http://www.w3.org/1999/xlink" x="0px" y="0px"
	 viewBox="0 0 556 556" style="enable-background:new 0 0 556 556;" xml:space="preserve">
<style type="text/css">
	.st0{display:none;}
</style>
<path class="st0" d="M423,78.3C383.8,39.1,330.6,17,275.1,17c-55.5,0-108.7,22.1-147.9,61.3c-37.8,38-60.6,88.4-64.1,141.9
	c-1.8,29.3,2.5,58.6,12.6,86.2c10,27.4,26.2,53.2,48.3,76.7L266,534.3c2.4,2.5,5.7,4,9.1,4c3.5,0,6.8-1.4,9.1-4l141.9-151.1
	c22.1-23.5,38.3-49.3,48.3-76.7c10.3-27.5,14.6-56.9,12.6-86.2C483.5,166.7,460.8,116.4,423,78.3z M450.9,297.8
	C442,322,427.5,345,407.8,366L275.1,507.4L142.3,366c-19.7-21-34.2-44-43.1-68.2c-9-24.2-12.8-50.1-11.1-75.9
	c3.1-47.5,23.3-92.2,56.8-125.9c34.5-34.5,81.3-54,130.2-54s95.6,19.4,130.2,54c33.6,33.7,53.7,78.4,56.8,125.9
	C463.7,247.7,459.9,273.5,450.9,297.8z"/>
<path class="st0" d="M275.1,118.9c-53.7,0-97.4,44.7-97.4,99.7s43.7,99.7,97.4,99.7s97.4-44.7,97.4-99.7S328.8,118.9,275.1,118.9z
	 M275.1,293.3c-40,0-72.4-33.5-72.4-74.7c0-41.2,32.5-74.7,72.4-74.7s72.4,33.5,72.4,74.7C347.6,259.8,315.1,293.3,275.1,293.3z"/>
<g>
	<rect x="63.4" y="202" width="92.8" height="296"/>
	<path d="M407.2,195.4c-3.5-0.4-7.1-0.7-10.8-0.8c-52-2.1-81.4,28.7-91.5,41.9c-2.7,3.5-4,5.8-4,5.8v-39.6h-88.8v296h88.8h4
		c0-30.1,0-60.2,0-90.3c0-16.3,0-32.5,0-48.8c0-20.1-1.6-41.6,8.5-59.8c8.5-15.4,23.9-23.1,41.3-23.1c51.3,0,52.5,46.4,52.5,50.8
		c0,0.2,0,0.3,0,0.3V500H500V306.9C500,240.9,466.4,201.8,407.2,195.4z"/>
	<circle cx="109.8" cy="109.8" r="53.8"/>
</g>
</svg>
