<?xml version="1.0" encoding="utf-8"?>
<!-- Generator: Adobe Illustrator 27.1.0, SVG Export Plug-In . SVG Version: 6.00 Build 0)  -->
<svg version="1.1" id="圖層_1" xmlns="http://www.w3.org/2000/svg" xmlns:xlink="http://www.w3.org/1999/xlink" x="0px" y="0px"
	 viewBox="0 0 512 512" style="enable-background:new 0 0 512 512;" xml:space="preserve">
<style type="text/css">
	.st0{fill:#FFFFFF;}
	.st1{fill-rule:evenodd;clip-rule:evenodd;fill:#005A9E;}
</style>
<path class="st0" d="M205,333l133.3-76.8L205,179.5V333z"/>
<g>
	<g>
		<path class="st1" d="M135.6,466.8V182.3H41v284.5H135.6L135.6,466.8z M88.3,143.5c33,0,53.5-21.9,53.5-49.2
			c-0.6-27.9-20.5-49.2-52.9-49.2c-32.4,0-53.5,21.2-53.5,49.2c0,27.3,20.5,49.2,52.3,49.2H88.3L88.3,143.5z"/>
		<path class="st1" d="M187.9,466.8h94.6V307.9c0-8.5,0.6-17,3.1-23.1c6.8-17,22.4-34.6,48.5-34.6c34.2,0,47.9,26.1,47.9,64.3v152.2
			h94.6V303.7c0-87.4-46.6-128.1-108.9-128.1c-51,0-73.4,28.5-85.8,47.9h0.6v-41.3h-94.6C189.2,209,187.9,466.8,187.9,466.8
			L187.9,466.8z"/>
	</g>
</g>
</svg>
